<?xml version="1.0" ?><svg id="Layer_1" style="enable-background:new 0 0 30 30;" version="1.1" viewBox="0 0 30 30" xml:space="preserve" xmlns="http://www.w3.org/2000/svg" xmlns:xlink="http://www.w3.org/1999/xlink"><style type="text/css">
	.st0{fill:#5EA3D7;}
	.st1{fill:#D8D2D2;}
</style><g><path class="st1" d="M28,11.2514954v-2.746521c0-1.289978-1.0499878-2.3399658-2.3399658-2.3399658H4.3400269   C3.0499878,6.1650085,2,7.2149963,2,8.5049744v2.746521H28z"/><path class="st0" d="M2,13.2549744v8.25c0,1.2900391,1.0499878,2.3300171,2.3400269,2.3300171h21.3200073   c1.289978,0,2.3399658-1.039978,2.3399658-2.3300171v-8.25H2z M22.6000366,19.644989h-3.3600464c-0.5499878,0-1-0.4500122-1-1   s0.4500122-1,1-1h3.3600464c0.5499878,0,1,0.4500122,1,1S23.1500244,19.644989,22.6000366,19.644989z"/></g></svg>