<?xml version="1.0" ?><svg height="439.30014" id="svg2985" version="1.1" width="564.50702" xmlns="http://www.w3.org/2000/svg" xmlns:cc="http://creativecommons.org/ns#" xmlns:dc="http://purl.org/dc/elements/1.1/" xmlns:inkscape="http://www.inkscape.org/namespaces/inkscape" xmlns:rdf="http://www.w3.org/1999/02/22-rdf-syntax-ns#" xmlns:sodipodi="http://sodipodi.sourceforge.net/DTD/sodipodi-0.dtd" xmlns:svg="http://www.w3.org/2000/svg"><defs id="defs2989"/><g id="g3125" transform="matrix(1.2152823,0,0,1.2152823,-67.025868,-37.711623)"><g id="g3115"><g id="g3110"><path d="m 248.63835,164.55338 c 0,66.25214 -33.19335,119.96012 -74.13943,119.96012 -40.94608,0 -74.13944,-53.70798 -74.13944,-119.96012 0,-66.25215 33.19336,-119.960126 74.13944,-119.960126 40.94608,0 74.13943,53.707976 74.13943,119.960126 z" id="path2997" style="fill:#f79f1a;fill-opacity:1;fill-rule:evenodd;stroke:none" transform="matrix(1.9375354,0,0,1.1997305,37.913789,-22.468724)"/><path d="m 248.63835,164.55338 c 0,66.25214 -33.19335,119.96012 -74.13943,119.96012 -40.94608,0 -74.13944,-53.70798 -74.13944,-119.96012 0,-66.25215 33.19336,-119.960126 74.13944,-119.960126 40.94608,0 74.13943,53.707976 74.13943,119.960126 z" id="path2995" style="fill:#ea001b;fill-opacity:1;fill-rule:evenodd;stroke:none" transform="matrix(1.9375354,0,0,1.1997305,-139.29754,-22.468724)"/><path d="M 287.40625,61.65625 C 253.88959,88.003288 232.375,128.94499 232.375,174.9375 c 0,45.99251 21.51459,86.96546 55.03125,113.3125 33.51666,-26.34704 55.03125,-67.31999 55.03125,-113.3125 0,-45.99251 -21.51459,-86.934212 -55.03125,-113.28125 z" id="path2999" style="fill:#ff5f01;fill-opacity:1;fill-rule:evenodd;stroke:none"/></g><g id="g3043" style="fill:#f79f1a;fill-opacity:1" transform="matrix(1.2704171,0,0,1.2704171,507.53053,240.70315)"><g id="text3045" style="font-size:13.80000019px;font-style:normal;font-weight:bold;text-align:start;text-anchor:start;fill:#f79f1a;fill-opacity:1;font-family:MarkProTest Font"><path d="m 9.3355799,8.3530862 0,-4.043348 -1.0556864,0 -1.2143844,2.7806642 -1.2143844,-2.7806642 -1.0556864,0 0,4.043348 0.7451904,0 0,-3.0497608 1.1384854,2.6288662 0.7727901,0 1.1384853,-2.6357661 0,3.0566607 z m -6.686014,0 0,-3.3533569 1.3523826,0 0,-0.6830912 -3.44305569,0 0,0.6830912 1.35238259,0 0,3.3533569 z" id="path3057" style="font-size:13.80000019px;font-style:normal;font-weight:bold;text-align:start;text-anchor:start;fill:#f79f1a;fill-opacity:1;font-family:MarkProTest Font"/></g><g id="text3047" style="font-size:13.80000019px;font-style:normal;font-weight:bold;text-align:start;text-anchor:start;fill:#f79f1a;fill-opacity:1;font-family:MarkProTest Font"/></g></g><g id="g3093"><g id="g3081"><path d="m 87.107776,390.0664 -8.15137,0 0,-38.03973 7.991539,0 0,4.63509 c 0,0 7.019178,-5.66488 11.188155,-5.59407 8.10601,0.13769 12.94629,7.03255 12.94629,7.03255 0,0 3.92643,-7.03255 12.78647,-7.03255 13.10204,0 15.02409,11.98731 15.02409,11.98731 l 0,26.85157 -7.83171,0 0,-23.65496 c 0,0 0.0281,-7.19238 -8.47103,-7.19238 -8.78896,0 -9.58985,7.19238 -9.58985,7.19238 l 0,23.65496 -8.15137,0 0,-23.81479 c 0,0 -0.78307,-7.51205 -8.151367,-7.51205 -9.569649,0 -9.749678,7.67188 -9.749678,7.67188 z" id="path3006" style="fill:black;stroke:none"/><path d="m 335,351.0625 c -4.16898,-0.0708 -11.1875,5.59375 -11.1875,5.59375 l 0,-4.625 -8,0 0,38.03125 8.15625,0 -0.15625,-23.8125 c 0,0 0.18035,-7.65625 9.75,-7.65625 1.77726,0 3.15756,0.43049 4.25,1.09375 l 0,-0.0312 2.65625,-7.40625 C 338.86585,351.57541 337.043,351.0972 335,351.0625 z" id="path3008" style="fill:black;stroke:none"/><path d="m 449.82571,351.0625 c -4.16898,-0.0708 -11.1875,5.59375 -11.1875,5.59375 l 0,-4.625 -8,0 0,38.03125 8.15625,0 -0.15625,-23.8125 c 0,0 0.18035,-7.65625 9.75,-7.65625 1.77726,0 3.15756,0.43049 4.25,1.09375 l 0,-0.0312 2.65625,-7.40625 c -1.6029,-0.67459 -3.42575,-1.1528 -5.46875,-1.1875 z" id="path3013" style="fill:black;stroke:none"/><path d="m 165.25,350.90625 c -12.19908,0 -18.6549,10.96437 -18.6875,20.125 -0.0335,9.38953 7.34938,20.21875 19.03125,20.21875 6.81514,0 12.41381,-5.03125 12.41381,-5.03125 l -0.0148,3.875 8.02355,0 0,-38.07748 -8.05181,0 0,4.79623 c 0,0 -5.2577,-5.90625 -12.71446,-5.90625 z m 1.5625,7.75 c 6.5542,0 11.875,5.70112 11.875,12.71875 0,7.01763 -5.3208,12.6875 -11.875,12.6875 -6.5542,0 -11.84375,-5.66987 -11.84375,-12.6875 0,-7.01763 5.28955,-12.71875 11.84375,-12.71875 z" id="path3015" style="fill:black;stroke:none"/><path d="m 399.24226,350.90625 c -12.19908,0 -18.6549,10.96437 -18.6875,20.125 -0.0335,9.38953 7.34938,20.21875 19.03125,20.21875 6.81514,0 12.41381,-5.03125 12.41381,-5.03125 l -0.0148,3.875 8.02355,0 0,-38.07748 -8.05181,0 0,4.79623 c 0,0 -5.2577,-5.90625 -12.71446,-5.90625 z m 1.5625,7.75 c 6.5542,0 11.875,5.70112 11.875,12.71875 0,7.01763 -5.3208,12.6875 -11.875,12.6875 -6.5542,0 -11.84375,-5.66987 -11.84375,-12.6875 0,-7.01763 5.28955,-12.71875 11.84375,-12.71875 z" id="path3020" style="fill:black;stroke:none"/><path d="m 476.2807,350.90625 c -12.19908,0 -18.6549,10.96437 -18.6875,20.125 -0.0335,9.38953 7.34938,20.21875 19.03125,20.21875 6.81514,0 12.41381,-5.03125 12.41381,-5.03125 l -0.0148,3.875 8.02355,0 0,-53.1088 -8.05181,0 0,19.82755 c 0,0 -5.2577,-5.90625 -12.71446,-5.90625 z m 1.5625,7.75 c 6.5542,0 11.875,5.70112 11.875,12.71875 0,7.01763 -5.3208,12.6875 -11.875,12.6875 -6.5542,0 -11.84375,-5.66987 -11.84375,-12.6875 0,-7.01763 5.28955,-12.71875 11.84375,-12.71875 z" id="path3022" style="fill:black;stroke:none"/><path d="m 210.49714,391.34504 c -8.31095,0 -15.98308,-5.11458 -15.98308,-5.11458 l 3.51628,-5.43425 c 0,0 7.25937,3.35645 12.4668,3.35645 3.3834,0 9.04207,-1.09255 9.11035,-4.47526 0.0722,-3.57518 -9.50993,-4.6351 -9.50993,-4.6351 0,0 -14.30485,-0.19514 -14.30485,-11.9873 0,-7.41618 7.14423,-12.14714 16.30274,-12.14714 5.29188,0 15.18392,4.63509 15.18392,4.63509 l -3.99577,6.2334 c 0,0 -7.63773,-3.05139 -11.66765,-3.19662 -3.40294,-0.12263 -7.51204,1.5067 -7.51204,4.47527 0,8.06531 23.81478,-0.62842 23.81478,15.66341 0,10.68831 -9.69899,12.62663 -17.42155,12.62663 z" id="path3024" style="fill:black;stroke:none"/><path d="m 241.15625,341 0,11.0625 -7.09375,0 0,8 7.09375,0 0,19.125 c 0,0 -0.62782,12.9375 13.28125,12.9375 3.84555,0 11.375,-2.84375 11.375,-2.84375 l -3.21875,-8.3125 c 0,0 -2.99427,2.55415 -6.375,2.46875 -6.42801,-0.16231 -6.25,-4.28125 -6.25,-4.28125 l 0,-19.09375 13.25,0 0,-8 -13.25,0 0,-11.0625 -8.8125,0 z" id="path3026" style="fill:black;stroke:none"/><path d="m 289.4375,351.375 c -13.08062,0 -19.6162,10.7741 -19.5625,20.125 0.0552,9.61636 5.95139,20.4375 20.34375,20.4375 6.16009,0 14.8125,-5.40625 14.8125,-5.40625 l -3.71875,-6.46875 c 0,0 -5.90429,4.1875 -11.09375,4.1875 -10.38995,0 -11.0625,-10.15625 -11.0625,-10.15625 l 27.8125,0 c 0,0 2.07492,-22.71875 -17.53125,-22.71875 z m -1.1875,7.46875 c 0.30844,-0.0175 0.6391,0 0.96875,0 9.7883,0 9.71875,9.25 9.71875,9.25 l -19.78125,0 c 0,0 -0.46794,-8.70642 9.09375,-9.25 z" id="path3034" style="fill:black;stroke:none"/><path d="m 372.16639,379.9646 3.72958,7.45915 c 0,0 -5.91117,3.84259 -12.54493,3.84259 -13.73406,0 -21.3603,-10.33639 -21.3603,-20.1171 0,-15.37168 12.13632,-19.89107 20.34314,-19.89107 7.44921,0 13.90114,4.29466 13.90114,4.29466 l -4.18164,7.45915 c 0,0 -2.53518,-3.95561 -9.94554,-3.95561 -7.39799,0 -11.30174,6.3784 -11.30174,12.43192 0,6.7838 4.5438,12.54493 11.41476,12.54493 5.39014,0 9.94553,-4.06862 9.94553,-4.06862 z" id="path3037" style="fill:black;stroke:none"/></g><g id="g3064" style="fill:black" transform="matrix(1.3613136,0,0,1.3613136,509.49268,379.29888)"><g id="text3066" style="font-size:13.80000019px;font-style:normal;font-weight:bold;text-align:start;text-anchor:start;fill:black;font-family:MarkProTest Font"><path d="M 3.2153586,4.0751412 C 2.3857854,4.0954197 1.7024074,4.3705533 1.1652224,4.900543 0.62803504,5.4305509 0.35002644,6.0938042 0.33119574,6.890305 0.35002644,7.6807822 0.6280351,8.3423105 1.1652226,8.8748917 1.7024077,9.4074832 2.3857857,9.6843419 3.2153586,9.7054688 4.0259505,9.6843419 4.7007036,9.4074831 5.23962,8.8748915 5.7785259,8.3423101 6.0582596,7.6807819 6.0788218,6.890305 6.0586908,6.0938042 5.7798196,5.4305508 5.2422073,4.9005428 4.7045844,4.370553 4.0289689,4.0954194 3.2153586,4.0751412 z m 0,5.0093356 C 2.5832953,9.068957 2.062065,8.8550599 1.6516659,8.4427848 1.2412635,8.0305208 1.0288041,7.5130281 1.014287,6.890305 1.0288044,6.2648642 1.2412639,5.7476587 1.6516661,5.338687 2.062065,4.9297326 2.5832953,4.7178482 3.2153586,4.7030331 3.8341904,4.7178485 4.3473707,4.9297329 4.7549011,5.3386872 5.162422,5.7476587 5.3737316,6.2648642 5.3888307,6.890305 5.3737316,7.5130283 5.162422,8.0305211 4.7549013,8.4427848 4.347371,8.8550596 3.8341907,9.0689567 3.2153586,9.0844768 z m 0.1655979,-3.5120549 -1.2074845,0 0,2.6150664 0.5588929,0 0,-0.9797874 0.2552967,0 0.7934898,0.9797874 0.6692914,0 L 3.5948538,7.200801 C 3.8620775,7.1673144 4.067637,7.0807779 4.211533,6.9411915 4.3554205,6.8016191 4.4281571,6.6236592 4.429743,6.4073112 4.4278698,6.1491471 4.3367335,5.9461748 4.1563339,5.7983937 3.975926,5.650629 3.7174671,5.5753051 3.3809565,5.5724219 z m -0.0069,0.4898937 c 0.1499257,1.516e-4 0.2675114,0.029189 0.3527575,0.087111 0.085239,0.057938 0.1286507,0.1438995 0.1302363,0.2578844 -0.00159,0.1173055 -0.044997,0.2052792 -0.1302361,0.2639211 -0.085246,0.058657 -0.202832,0.087981 -0.3527577,0.087974 l -0.6416917,0 0,-0.6968911 z" id="path3078" style="font-size:13.80000019px;font-style:normal;font-weight:bold;text-align:start;text-anchor:start;fill:black;font-family:MarkProTest Font"/></g><g id="text3068" style="font-size:13.80000019px;font-style:normal;font-weight:bold;text-align:start;text-anchor:start;fill:black;font-family:MarkProTest Font"/></g></g></g></svg>